<svg width="59" height="13" viewBox="0 0 59 13" fill="none" xmlns="http://www.w3.org/2000/svg">
  <path
    d="M21.6621 0.619629H23.8967L27.6962 7.49276L31.4958 0.619635H33.682V11.9135H31.8588V3.25759L28.5271 9.25139H26.8169L23.4852 3.25759V11.9135H21.6621V0.619629Z"
    fill="#62748A" />
  <path
    d="M39.5626 12.1152C38.7182 12.1152 37.976 11.9283 37.3361 11.5545C36.6961 11.1807 36.1973 10.6631 35.8397 10.0016C35.482 9.34008 35.3032 8.58178 35.3032 7.7267C35.3032 6.86088 35.478 6.09451 35.8276 5.42759C36.1771 4.76081 36.6625 4.23912 37.2837 3.86253C37.9049 3.48618 38.6188 3.29795 39.4255 3.29785C40.2268 3.29785 40.9165 3.48742 41.4947 3.86655C42.0727 4.24579 42.5177 4.77688 42.8297 5.45984C43.1416 6.14289 43.2976 6.94422 43.2976 7.86383V8.36391H37.1102C37.2232 9.05242 37.5015 9.59427 37.9452 9.98944C38.3889 10.3847 38.9495 10.5824 39.6271 10.5824C40.1703 10.5824 40.6382 10.5017 41.0308 10.3403C41.4233 10.179 41.7917 9.93432 42.136 9.60629L43.104 10.7921C42.1413 11.6742 40.9608 12.1152 39.5626 12.1152ZM40.8937 5.41543C40.5118 5.02558 40.0116 4.83063 39.3932 4.83056C38.7908 4.83056 38.2866 5.02957 37.8807 5.42759C37.4745 5.82557 37.2177 6.36068 37.1102 7.03292H41.5471C41.4933 6.34451 41.2755 5.80535 40.8937 5.41543Z"
    fill="#62748A" />
  <path
    d="M45.508 4.99204H43.8301V3.49961H45.508V1.03113H47.2666V3.49961H49.8158V4.99204H47.2666V8.77544C47.2666 9.40461 47.3742 9.85366 47.5893 10.1226C47.8043 10.3916 48.1727 10.526 48.6945 10.5259C48.9257 10.5259 49.122 10.5165 49.2834 10.4977C49.4447 10.479 49.6222 10.4534 49.8158 10.4211V11.8973C49.5949 11.9612 49.3698 12.0097 49.1422 12.0426C48.8818 12.0809 48.6189 12.0998 48.3557 12.099C46.4572 12.099 45.508 11.0611 45.508 8.98519V4.99204Z"
    fill="#62748A" />
  <path
    d="M58.9804 11.9134H57.2541V10.7357C56.9475 11.1767 56.5576 11.5169 56.0844 11.7561C55.6111 11.9953 55.0733 12.115 54.471 12.1152C53.7288 12.1152 53.0714 11.9256 52.4986 11.5464C51.9258 11.1672 51.4754 10.6456 51.1474 9.98141C50.8193 9.31721 50.6553 8.55757 50.6553 7.70249C50.6553 6.84202 50.822 6.08101 51.1555 5.41945C51.4888 4.75803 51.95 4.23906 52.5389 3.86253C53.1278 3.48618 53.8041 3.29795 54.5678 3.29785C55.1432 3.29785 55.6595 3.40946 56.1166 3.63268C56.5676 3.85083 56.9582 4.17629 57.2541 4.58052V3.49958H58.9804V11.9134ZM57.2218 6.44403C57.0335 5.96538 56.7364 5.58755 56.3304 5.31055C55.9243 5.03361 55.4551 4.89515 54.9227 4.89515C54.1697 4.89515 53.5701 5.1479 53.1238 5.65341C52.6774 6.15896 52.4542 6.84198 52.4543 7.70248C52.4543 8.56841 52.6694 9.25411 53.0996 9.75959C53.5298 10.2651 54.1133 10.5179 54.8502 10.5179C55.3933 10.5179 55.8773 10.378 56.3022 10.0983C56.727 9.81882 57.0335 9.44237 57.2218 8.96897V6.44403Z"
    fill="#62748A" />
  <path
    d="M12.8532 0.237915C11.3871 0.237915 10.2411 1.3421 9.2037 2.74476C7.77809 0.929581 6.58584 0.237915 5.15907 0.237915C2.25023 0.237915 0.0214844 4.02351 0.0214844 8.03034C0.0214844 10.5377 1.2345 12.1191 3.26628 12.1191C4.72862 12.1191 5.78034 11.4297 7.65003 8.16144C7.65003 8.16144 8.4294 6.78511 8.96557 5.83702C9.15345 6.14037 9.35133 6.46724 9.55921 6.81764L10.436 8.29254C12.1438 11.1505 13.0954 12.1191 14.8197 12.1191C16.7991 12.1191 17.9006 10.5161 17.9006 7.95659C17.9006 3.7613 15.6216 0.237915 12.8532 0.237915ZM6.22428 7.2765C4.70841 9.65273 4.184 10.1853 3.34002 10.1853C2.47147 10.1853 1.95525 9.42282 1.95525 8.06311C1.95525 5.15427 3.40558 2.17987 5.13449 2.17987C6.07075 2.17987 6.85315 2.72059 8.05159 4.43627C6.91362 6.18175 6.22428 7.2765 6.22428 7.2765ZM11.9454 6.97735L10.8971 5.22906C10.6135 4.76768 10.3408 4.34301 10.0793 3.95504C11.024 2.49679 11.8034 1.77018 12.7303 1.77018C14.6558 1.77018 16.1963 4.60528 16.1963 8.0877C16.1963 9.41511 15.7615 10.1853 14.8607 10.1853C13.9973 10.1853 13.5848 9.61511 11.9454 6.97735Z"
    fill="#62748A" />
</svg>